<svg width="147" height="28" viewBox="0 0 147 28" fill="none" xmlns="http://www.w3.org/2000/svg">
<path d="M15.504 20.736C14.88 21.856 14.016 22.712 12.912 23.304C11.824 23.896 10.576 24.192 9.168 24.192C7.552 24.192 6.16 23.856 4.992 23.184C3.84 22.512 2.952 21.552 2.328 20.304C1.704 19.04 1.392 17.536 1.392 15.792C1.392 14 1.736 12.424 2.424 11.064C3.112 9.704 4.072 8.64 5.304 7.872C6.536 7.104 7.96 6.72 9.576 6.72C10.904 6.72 12.072 6.992 13.08 7.536C14.104 8.08 14.92 8.88 15.528 9.936L14.088 11.016C13.128 9.288 11.608 8.424 9.528 8.424C8.296 8.424 7.208 8.736 6.264 9.36C5.336 9.984 4.608 10.848 4.08 11.952C3.552 13.056 3.288 14.336 3.288 15.792C3.288 17.904 3.8 19.552 4.824 20.736C5.864 21.904 7.312 22.488 9.168 22.488C11.44 22.488 13.08 21.544 14.088 19.656L15.504 20.736ZM20.9385 24.192C19.7385 24.192 18.8185 23.776 18.1785 22.944C17.5385 22.112 17.2185 20.96 17.2185 19.488L17.2905 12.072H19.0425L18.9705 19.272C18.9545 20.312 19.1385 21.12 19.5225 21.696C19.9065 22.272 20.5145 22.56 21.3465 22.56C22.1625 22.56 22.8825 22.232 23.5065 21.576C24.1305 20.92 24.6185 19.832 24.9705 18.312C25.3385 16.776 25.5305 14.696 25.5465 12.072H27.2265V24H25.4505L25.5945 20.088C25.1465 21.496 24.5145 22.536 23.6985 23.208C22.8825 23.864 21.9625 24.192 20.9385 24.192ZM34.6556 24.192C33.1676 24.192 32.0156 23.888 31.1996 23.28C30.3836 22.656 29.9116 21.776 29.7836 20.64L31.3196 20.28C31.4316 21.128 31.7516 21.752 32.2796 22.152C32.8236 22.552 33.6156 22.752 34.6556 22.752C35.5356 22.752 36.1996 22.576 36.6476 22.224C37.1116 21.856 37.3436 21.384 37.3436 20.808C37.3436 20.264 37.1116 19.864 36.6476 19.608C36.1836 19.336 35.4556 19.104 34.4636 18.912C33.6316 18.752 32.9196 18.552 32.3276 18.312C31.7356 18.056 31.2796 17.704 30.9596 17.256C30.6396 16.808 30.4796 16.208 30.4796 15.456C30.4796 14.784 30.6636 14.176 31.0316 13.632C31.3996 13.088 31.9036 12.664 32.5436 12.36C33.1996 12.04 33.9356 11.88 34.7516 11.88C35.8716 11.88 36.7836 12.152 37.4876 12.696C38.2076 13.224 38.6476 13.96 38.8076 14.904L37.3196 15.288C37.0796 13.976 36.2156 13.32 34.7276 13.32C33.9596 13.32 33.3436 13.512 32.8796 13.896C32.4316 14.264 32.2076 14.768 32.2076 15.408C32.2076 15.936 32.4076 16.36 32.8076 16.68C33.2076 16.984 33.9276 17.248 34.9676 17.472C35.8156 17.648 36.5436 17.856 37.1516 18.096C37.7596 18.32 38.2236 18.632 38.5436 19.032C38.8796 19.432 39.0556 19.984 39.0716 20.688C39.0716 21.36 38.8876 21.96 38.5196 22.488C38.1516 23.016 37.6316 23.432 36.9596 23.736C36.3036 24.04 35.5356 24.192 34.6556 24.192ZM45.9688 24.192C44.6088 24.192 43.5848 23.832 42.8968 23.112C42.2088 22.376 41.8728 21.4 41.8888 20.184L41.9608 13.56H39.8488V12.072H41.9848L42.0088 9.576H43.7608L43.7368 12.072H47.8888V13.56H43.7128L43.6408 20.064C43.6408 20.832 43.8328 21.448 44.2168 21.912C44.6168 22.376 45.2328 22.608 46.0648 22.608C46.4328 22.608 46.7768 22.568 47.0968 22.488C47.4168 22.392 47.7528 22.208 48.1048 21.936L48.6808 23.328C48.3288 23.632 47.9128 23.856 47.4328 24C46.9528 24.128 46.4648 24.192 45.9688 24.192ZM55.2424 11.856C56.8904 11.856 58.1864 12.392 59.1304 13.464C60.0904 14.52 60.5704 15.96 60.5704 17.784C60.5704 19 60.3304 20.096 59.8504 21.072C59.3864 22.032 58.7304 22.792 57.8824 23.352C57.0344 23.912 56.0424 24.192 54.9064 24.192C53.2264 24.192 51.9064 23.664 50.9464 22.608C49.9864 21.536 49.5064 20.08 49.5064 18.24C49.5064 17.024 49.7384 15.936 50.2024 14.976C50.6824 14.016 51.3544 13.256 52.2184 12.696C53.0824 12.136 54.0904 11.856 55.2424 11.856ZM54.9064 22.584C56.0584 22.584 56.9864 22.144 57.6904 21.264C58.3944 20.384 58.7464 19.224 58.7464 17.784C58.7464 16.392 58.4344 15.32 57.8104 14.568C57.2024 13.816 56.3544 13.44 55.2664 13.44C54.4664 13.44 53.7704 13.648 53.1784 14.064C52.6024 14.464 52.1464 15.024 51.8104 15.744C51.4904 16.464 51.3304 17.296 51.3304 18.24C51.3304 19.648 51.6424 20.728 52.2664 21.48C52.9064 22.216 53.7864 22.584 54.9064 22.584ZM63.6516 24V12.072H65.4276L65.2836 16.176C65.7156 14.704 66.3396 13.616 67.1556 12.912C67.9876 12.208 68.9076 11.856 69.9156 11.856C70.9556 11.856 71.7956 12.168 72.4356 12.792C73.0756 13.416 73.4676 14.36 73.6116 15.624C74.0596 14.36 74.6996 13.416 75.5316 12.792C76.3796 12.168 77.2916 11.856 78.2676 11.856C79.4836 11.856 80.4116 12.28 81.0516 13.128C81.7076 13.976 82.0276 15.2 82.0116 16.8L81.9636 24H80.2116L80.2596 17.016C80.2916 14.664 79.4836 13.488 77.8356 13.488C77.2916 13.488 76.7716 13.656 76.2756 13.992C75.7796 14.328 75.3316 14.896 74.9316 15.696C74.5476 16.48 74.2436 17.552 74.0196 18.912C73.7956 20.272 73.6836 21.968 73.6836 24H71.9556V17.016C71.9556 15.832 71.7636 14.952 71.3796 14.376C71.0116 13.784 70.4116 13.488 69.5796 13.488C69.0196 13.488 68.4916 13.656 67.9956 13.992C67.4996 14.328 67.0516 14.896 66.6516 15.696C66.2676 16.48 65.9556 17.552 65.7156 18.912C65.4916 20.272 65.3796 21.968 65.3796 24H63.6516Z" fill="url(#paint0_linear)"/>
<path d="M89.192 21.04C89.192 20.576 89.336 20.344 89.624 20.344C89.8 20.344 90.28 20.744 91.064 21.544C91.368 21.832 91.736 22.104 92.168 22.36C92.6 22.6 93.024 22.72 93.44 22.72C93.968 22.72 94.448 22.168 94.88 21.064C95.328 19.944 95.944 17.96 96.728 15.112C97.512 12.248 98.144 10.424 98.624 9.64C97.92 9.752 96.928 9.96 95.648 10.264C94.384 10.568 93.624 10.72 93.368 10.72C92.776 10.72 92.48 10.52 92.48 10.12C92.48 9.576 93.472 9.024 95.456 8.464C97.456 7.904 98.92 7.624 99.848 7.624C100.136 7.624 100.384 7.688 100.592 7.816C100.816 7.944 100.928 8.136 100.928 8.392C100.928 8.632 100.816 9.08 100.592 9.736C99.6 12.632 98.952 14.6 98.648 15.64C97.608 19.432 96.816 21.888 96.272 23.008C95.728 24.128 94.912 24.688 93.824 24.688C92.752 24.688 91.712 24.24 90.704 23.344C89.696 22.448 89.192 21.68 89.192 21.04ZM108.219 16.816C108.219 16.272 108.131 15.76 107.955 15.28C107.779 14.784 107.523 14.424 107.187 14.2C106.083 14.504 105.131 15.36 104.331 16.768C103.547 18.16 103.155 19.472 103.155 20.704C103.155 21.936 103.459 22.704 104.067 23.008C105.219 22.784 106.195 22 106.995 20.656C107.811 19.296 108.219 18.016 108.219 16.816ZM101.907 17.032C102.467 15.784 103.195 14.76 104.091 13.96C105.003 13.144 105.931 12.736 106.875 12.736C107.835 12.736 108.635 13.144 109.275 13.96C109.915 14.76 110.235 15.744 110.235 16.912C110.235 18.064 109.955 19.248 109.395 20.464C108.835 21.664 108.059 22.664 107.067 23.464C106.091 24.248 105.051 24.64 103.947 24.64C103.131 24.64 102.451 24.264 101.907 23.512C101.363 22.76 101.091 21.808 101.091 20.656C101.091 19.488 101.363 18.28 101.907 17.032ZM122.454 14.032C122.454 14.176 121.742 14.928 120.318 16.288C119.79 16.8 119.302 17.408 118.854 18.112C118.422 18.8 118.206 19.432 118.206 20.008C118.206 20.584 118.374 21.12 118.71 21.616C119.062 22.096 119.438 22.464 119.838 22.72C120.254 22.96 120.63 23.2 120.966 23.44C121.318 23.68 121.494 23.88 121.494 24.04C121.494 24.44 121.174 24.64 120.534 24.64C119.91 24.64 119.158 24.288 118.278 23.584C117.414 22.864 116.878 22.064 116.67 21.184C116.59 21.024 116.526 20.872 116.478 20.728C115.39 22.2 114.598 23.224 114.102 23.8C113.622 24.36 113.262 24.64 113.022 24.64C112.782 24.64 112.518 24.456 112.23 24.088C111.942 23.704 111.798 23.392 111.798 23.152C111.798 22.896 112.054 21.864 112.566 20.056C113.094 18.232 113.614 16.048 114.126 13.504C114.654 10.96 114.918 8.688 114.918 6.688C114.918 6.432 114.95 6.256 115.014 6.16C115.094 6.064 115.254 6.016 115.494 6.016C115.734 6.016 116.03 6.256 116.382 6.736C116.734 7.2 116.91 7.656 116.91 8.104C116.91 9.528 116.622 11.52 116.046 14.08C115.47 16.64 114.782 19.072 113.982 21.376C115.79 18.8 117.35 16.72 118.662 15.136C119.99 13.536 120.806 12.736 121.11 12.736C121.43 12.736 121.734 12.888 122.022 13.192C122.31 13.496 122.454 13.776 122.454 14.032ZM132.672 16.72C132.672 17.568 132.208 18.264 131.28 18.808C130.368 19.336 129.328 19.6 128.16 19.6C127.008 19.6 125.96 19.472 125.016 19.216C124.792 19.92 124.68 20.552 124.68 21.112C124.68 21.656 124.848 22.08 125.184 22.384C125.536 22.688 126.104 22.84 126.888 22.84C127.688 22.84 128.504 22.704 129.336 22.432C130.184 22.144 130.648 22 130.728 22C131.144 22 131.352 22.16 131.352 22.48C131.352 22.912 130.864 23.384 129.888 23.896C128.912 24.392 127.96 24.64 127.032 24.64C125.784 24.64 124.768 24.272 123.984 23.536C123.2 22.784 122.808 21.84 122.808 20.704C122.808 19.568 123.112 18.384 123.72 17.152C124.328 15.904 125.112 14.856 126.072 14.008C127.032 13.16 127.984 12.736 128.928 12.736C129.872 12.736 130.728 13.184 131.496 14.08C132.28 14.976 132.672 15.856 132.672 16.72ZM129.048 14.632C128.456 14.632 127.84 14.944 127.2 15.568C126.56 16.176 126.016 16.936 125.568 17.848C126.208 17.992 126.936 18.064 127.752 18.064C128.568 18.064 129.28 17.936 129.888 17.68C130.496 17.408 130.8 17.056 130.8 16.624C130.8 16.192 130.6 15.752 130.2 15.304C129.816 14.856 129.432 14.632 129.048 14.632ZM140.764 12.736C141.308 12.736 141.82 13.04 142.3 13.648C142.78 14.24 143.02 14.76 143.02 15.208C143.02 15.48 142.892 15.616 142.636 15.616C142.46 15.616 142.188 15.48 141.82 15.208C141.452 14.92 141.076 14.776 140.692 14.776C140.308 14.776 139.7 15 138.868 15.448C138.052 15.896 137.644 16.368 137.644 16.864C137.644 17.232 138.38 17.864 139.852 18.76C140.412 19.112 140.916 19.568 141.364 20.128C141.828 20.672 142.06 21.264 142.06 21.904C142.06 22.528 141.62 23.144 140.74 23.752C139.876 24.344 138.86 24.64 137.692 24.64C136.54 24.64 135.516 24.36 134.62 23.8C133.74 23.24 133.3 22.712 133.3 22.216C133.3 22.008 133.348 21.848 133.444 21.736C133.556 21.608 133.692 21.544 133.852 21.544C134.012 21.544 134.236 21.648 134.524 21.856C135.388 22.48 136.284 22.792 137.212 22.792C138.156 22.792 138.836 22.688 139.252 22.48C139.668 22.256 139.876 21.968 139.876 21.616C139.876 21.248 139.644 20.864 139.18 20.464C138.716 20.048 138.204 19.68 137.644 19.36C137.1 19.04 136.596 18.648 136.132 18.184C135.668 17.72 135.436 17.248 135.436 16.768C135.436 15.92 136.1 15.04 137.428 14.128C138.772 13.2 139.884 12.736 140.764 12.736Z" fill="url(#paint1_linear)"/>
<defs>
<linearGradient id="paint0_linear" x1="42.5" y1="0" x2="42.5" y2="26" gradientUnits="userSpaceOnUse">
<stop offset="0.0729167" stop-color="white"/>
<stop offset="0.34375" stop-color="#E6A524"/>
<stop offset="0.744792" stop-color="#44C9FF"/>
</linearGradient>
<linearGradient id="paint1_linear" x1="118" y1="0" x2="118" y2="26" gradientUnits="userSpaceOnUse">
<stop offset="0.541667" stop-color="#44C9FF"/>
<stop offset="0.729167" stop-color="#AAB274"/>
<stop offset="0.859375" stop-color="#F1A214"/>
<stop offset="1" stop-color="white"/>
</linearGradient>
</defs>
</svg>
